<svg width="512" height="512" viewBox="0 0 512 512" fill="none" xmlns="http://www.w3.org/2000/svg">
  <defs>
    <linearGradient id="bg" x1="48" y1="48" x2="464" y2="464" gradientUnits="userSpaceOnUse">
      <stop stop-color="#D41212"/>
      <stop offset="1" stop-color="#9C0E0E"/>
    </linearGradient>
  </defs>
  <rect x="32" y="32" width="448" height="448" rx="96" fill="url(#bg)"/>
  <path d="M337.3 175.4C311 150.4 275.9 138 234.5 138C185.6 138 145.8 162.5 122 206.6L174.7 233.8C187.4 208.6 206.8 196.6 232.9 196.6C262.9 196.6 283.8 213.1 283.8 237.4C283.8 256.9 269.6 269.8 242.7 277.2L214.2 285.1C171.9 296.8 144.6 323.4 144.6 365.1C144.6 419.2 188.6 454 247.9 454C307.8 454 354 420.8 374.7 364.8L320.7 340.7C309.6 373 284.3 394.1 250 394.1C219.2 394.1 198.6 378.3 198.6 355.6C198.6 337.1 211 325 239.9 317L268 309.2C316.4 295.8 338.6 265.2 338.6 232.4C338.6 210.2 329.4 190.8 337.3 175.4Z" fill="white"/>
</svg>
